<svg xmlns="http://www.w3.org/2000/svg" viewBox="0 0 256 256" role="img" aria-labelledby="title desc">
  <title>Donkey Quant Icon</title>
  <desc>Flat donkey icon with a quantitative trading dashboard aesthetic.</desc>
  <rect width="256" height="256" rx="56" fill="#16202A" />
  <g stroke="#32404D" stroke-width="2" opacity="0.45">
    <path d="M48 76H208" />
    <path d="M48 108H208" />
    <path d="M48 140H208" />
    <path d="M48 172H208" />
    <path d="M76 48V208" />
    <path d="M108 48V208" />
    <path d="M140 48V208" />
    <path d="M172 48V208" />
  </g>
  <path d="M91 57 113 32 124 92 103 100Z" fill="#EDE2D0" />
  <path d="M165 57 143 32 132 92 153 100Z" fill="#EDE2D0" />
  <path d="M98 60 111 47 117 88 106 92Z" fill="#1F6B3D" />
  <path d="M158 60 145 47 139 88 150 92Z" fill="#1F6B3D" />
  <path
    d="M128 73c-34 0-61 23-61 58v18c0 39 27 65 61 65s61-26 61-65v-18c0-35-27-58-61-58Z"
    fill="#EDE2D0"
  />
  <path
    d="M84 96c10-12 27-18 44-18s34 6 44 18v14H84V96Z"
    fill="#22303C"
  />
  <g stroke="#EDE2D0" stroke-linecap="round" stroke-width="3.5">
    <path d="M101 103v-9" />
    <path d="M120 103V90" />
    <path d="M139 103V84" />
    <path d="M158 103V93" />
  </g>
  <g fill="#22C55E">
    <rect x="96" y="96" width="10" height="14" rx="5" />
    <rect x="115" y="92" width="10" height="18" rx="5" />
    <rect x="134" y="86" width="10" height="24" rx="5" />
    <rect x="153" y="95" width="10" height="15" rx="5" />
  </g>
  <path
    d="M92 108 110 102 128 97 145 90 164 87"
    fill="none"
    stroke="#F3B641"
    stroke-linecap="round"
    stroke-linejoin="round"
    stroke-width="5"
  />
  <rect x="101" y="126" width="15" height="7" rx="3.5" fill="#16202A" />
  <rect x="140" y="126" width="15" height="7" rx="3.5" fill="#16202A" />
  <path
    d="M92 150c0-15 12-27 27-27h18c15 0 27 12 27 27v17c0 22-16 36-36 36s-36-14-36-36v-17Z"
    fill="#1F6B3D"
  />
  <g opacity="0.22" stroke="#EDE2D0" stroke-width="2">
    <path d="M104 137v45" />
    <path d="M124 132v55" />
    <path d="M144 142v35" />
  </g>
  <path
    d="M103 173 116 160 129 164 143 152 154 156"
    fill="none"
    stroke="#F3B641"
    stroke-linecap="round"
    stroke-linejoin="round"
    stroke-width="6"
  />
  <circle cx="154" cy="156" r="5" fill="#F3B641" />
</svg>
